 ######## ######## ######## ##          ######## ########  ######## ######## 
 ##       ##       ##       ##          ##       ##     ## ##       ##       
 ##       ##       ##       ##          ##       ##     ## ##       ##       
 ######   ######   ######   ##          ######   ########  ######   ######   
 ##       ##       ##       ##          ##       ##   ##   ##       ##       
 ##       ##       ##       ##          ##       ##    ##  ##       ##       
 ##       ######## ######## ########    ##       ##     ## ######## ########  

 Genre:Drama | Horror | Thriller
 Language:English
 IMDb:  http://www.imdb.com/title/tt1161864/
 Source:BluRay.X264-AMIABLE
 Subtitles:Romana/Englsih For Foreign Parts/English


 Format : MPEG-4
 Format profile : Base Media
 Codec ID : isom
 File size : 2.71 GiB
 Duration : 1h 53mn
 Overall bit rate : 3 409 Kbps


 Video
 Format profile : High@L4.1
 Format settings, CABAC : Yes
 Format settings, ReFrames : 3 frames
 Codec ID : avc1
 Codec ID/Info : Advanced Video Coding
 Duration : 1h 53mn
 Bit rate mode : Variable
 Bit rate : 3 000 Kbps
 Maximum bit rate : 27.9 Mbps
 Width : 1 280 pixels
 Height : 536 pixels
 Display aspect ratio : 2.35:1
 Frame rate mode : Constant
 Frame rate : 23.976 fps
 Color space : YUV
 Chroma subsampling : 4:2:0
 Bit depth : 8 bits
 Scan type : Progressive
 Bits/(Pixel*Frame) : 0.182
 Stream size : 2.36 GiB (87%)
 Writing library : x264


 Audio
 ID : 2
 Format : AAC
 Format/Info : Advanced Audio Codec
 Format version : Version 4
 Format profile : LC
 Format settings, SBR : No
 Codec ID : 40
 Duration : 1h 53mn
 Bit rate mode : Variable
 Bit rate : 439 Kbps
 Maximum bit rate : 546 Kbps
 Channel(s) : 6 channels
 Channel positions : Front: L C R, Side: L R, LFE
 Sampling rate : 48.0 KHz
 Stream size : 357 MiB (13%)



 Plot:
 An American seminary student travels to Italy to take an exorcism course.

 ######## ######## ######## ##          ######## ########  ######## ######## 
 ##       ##       ##       ##          ##       ##     ## ##       ##       
 ##       ##       ##       ##          ##       ##     ## ##       ##       
 ######   ######   ######   ##          ######   ########  ######   ######   
 ##       ##       ##       ##          ##       ##   ##   ##       ##       
 ##       ##       ##       ##          ##       ##    ##  ##       ##       
 ##       ######## ######## ########    ##       ##     ## ######## ########  